<svg width="12" height="15" viewBox="0 0 12 15" fill="none" xmlns="http://www.w3.org/2000/svg">
<path d="M10.0004 5H11.3334C11.5164 5.00652 11.6894 5.08533 11.8144 5.21917C11.9394 5.35301 12.0063 5.53095 12.0004 5.714V14.285C12.0063 14.4681 11.9394 14.646 11.8144 14.7798C11.6894 14.9137 11.5164 14.9925 11.3334 14.999H0.667364C0.48451 14.9925 0.311682 14.9138 0.186684 14.7802C0.0616869 14.6466 -0.00530456 14.4689 0.000364299 14.286V5.714C-0.00557446 5.53095 0.0612963 5.35301 0.186322 5.21917C0.311348 5.08533 0.484332 5.00652 0.667364 5H2.00036V4.286C1.96365 3.18753 2.36418 2.11936 3.11407 1.31585C3.86397 0.512339 4.90198 0.0391124 6.00036 0C7.09875 0.0391124 8.13676 0.512339 8.88665 1.31585C9.63655 2.11936 10.0371 3.18753 10.0004 4.286V5ZM1.33336 6.429V13.572H10.6664V6.429H1.33336ZM5.33336 9.286H6.66736V10.715H5.33336V9.286ZM2.66636 9.286H4.00036V10.715H2.66736L2.66636 9.286ZM7.99936 9.286H9.33236V10.715H8.00036L7.99936 9.286ZM8.66736 5V4.286C8.69166 3.55371 8.42452 2.84169 7.92455 2.3061C7.42458 1.7705 6.73259 1.45508 6.00036 1.429C5.26814 1.45508 4.57615 1.7705 4.07618 2.3061C3.5762 2.84169 3.30907 3.55371 3.33336 4.286V5H8.66736Z" fill="#FEFEFE"/>
</svg>
