<svg width="300" height="317" viewBox="0 0 300 317" fill="none" xmlns="http://www.w3.org/2000/svg">
<path d="M188.3 48.0397C188.219 48.3897 188.137 48.7398 188.064 49.0728C188.064 49.0791 188.063 49.0853 188.06 49.0909C188.057 49.0966 188.053 49.1017 188.048 49.1058C186.682 54.7968 185.479 58.6758 183.234 62.3508L175.396 54.9028L179.682 46.7958L179.958 46.2838V46.2758L179.966 46.2598L180.023 46.2758L180.917 46.4628L188.3 48.0397Z" fill="#F9B384"/>
<path d="M189.765 42.0394C189.748 42.2914 189.723 42.5395 189.69 42.7955C189.587 43.5862 189.44 44.3706 189.251 45.1454C189.129 45.6654 188.992 46.1864 188.846 46.6824C188.675 47.2754 188.488 47.8444 188.309 48.3654C188.26 48.4954 188.22 48.6254 188.179 48.7474C188.138 48.8694 188.105 48.9664 188.064 49.0724C188.064 49.0788 188.063 49.085 188.06 49.0906C188.057 49.0963 188.053 49.1014 188.048 49.1055C187.991 49.2595 187.942 49.4054 187.885 49.5524C187.883 49.5697 187.878 49.5864 187.87 49.6014C187.829 49.7234 187.78 49.8364 187.739 49.9504C187.454 50.7064 187.251 51.1705 187.251 51.1705C185.896 50.9529 184.598 50.4699 183.43 49.7491C182.262 49.0284 181.247 48.0841 180.445 46.9705C180.283 46.7595 180.128 46.5474 179.982 46.3284C179.974 46.3124 179.966 46.3034 179.958 46.2874V46.2794C178.171 43.3777 177.031 40.1243 176.617 36.7415C176.609 36.7095 176.609 36.6845 176.601 36.6525C176.454 35.6365 176.372 34.7415 176.323 34.0665C176.311 33.8859 176.337 33.7047 176.398 33.5344C176.46 33.3641 176.556 33.2083 176.68 33.0768C176.805 32.9454 176.954 32.841 177.121 32.7704C177.288 32.6998 177.467 32.6644 177.648 32.6664L178.836 32.6824L180.137 30.4824L189.291 34.5634C189.577 36.0498 189.748 37.5559 189.804 39.0684C189.847 40.0587 189.834 41.0506 189.765 42.0394Z" fill="#F9B384"/>
<path d="M183.927 43.2843L180.918 46.4633L179.959 46.2843V46.2763C178.171 43.3746 177.032 40.1211 176.617 36.7383L178.942 37.2833C179.231 38.8812 179.692 40.4433 180.316 41.9423L183.927 43.2843Z" fill="#E28B6D"/>
<path d="M179.86 37.1852C178.909 37.9732 177.349 37.1362 176.601 36.6482C176.454 35.6322 176.372 34.7372 176.323 34.0622C176.311 33.8816 176.337 33.7005 176.398 33.5302C176.46 33.3599 176.556 33.2041 176.68 33.0726C176.805 32.9411 176.954 32.8368 177.121 32.7662C177.288 32.6956 177.467 32.6601 177.648 32.6622L178.836 32.6782C178.836 32.6782 181.039 36.2012 179.86 37.1852Z" fill="#E28B6D"/>
<path d="M189.805 39.0704L189.404 39.0195L182.527 37.4395L180.314 41.9395L183.605 43.4664C182.144 44.0438 180.884 45.0367 179.98 46.3224C180.78 47.5979 181.841 48.6892 183.094 49.524C184.346 50.3589 185.762 50.9184 187.247 51.1655C188.5 48.2534 189.346 45.1825 189.762 42.0394C189.831 41.0513 189.846 40.0601 189.805 39.0704ZM184.6 43.2205C184.795 42.5705 184.787 41.5404 183.255 40.8704L185.255 41.0134L185.524 43.1844C185.216 43.1497 184.904 43.1618 184.6 43.2205Z" fill="#F9B384"/>
<path d="M189.195 55.2359C181.78 74.0359 167.689 95.583 154.33 110.259C150.114 115.036 145.41 119.359 140.296 123.159L133.148 104.726L132.254 102.417L134.498 100.408L134.905 100.042L160.805 76.877L177.644 49.0449L189.195 55.2359Z" fill="#1F3C88"/>
<path d="M151.254 286.492L134.378 287.177L131.725 298.994L147.558 301.469L151.254 286.492Z" fill="#F9B384"/>
<path d="M162.131 316.231L147.558 301.469L131.725 298.994L127.881 316.104L162.131 316.231Z" fill="#D3DFFF"/>
<path d="M130.843 303.279L130.688 304.078L138.517 305.601L138.672 304.802L130.843 303.279Z" fill="#708CD5"/>
<path d="M152.153 306.457L147.172 308.588L147.492 309.336L152.473 307.205L152.153 306.457Z" fill="#708CD5"/>
<path d="M155.304 309.303L150.322 311.434L150.642 312.182L155.624 310.051L155.304 309.303Z" fill="#708CD5"/>
<path d="M113.848 170.066L143.372 225.015L127.888 290.963L156.664 290.803L172.618 238.765C175.252 230.174 174.619 220.913 170.84 212.759L153.541 175.416L113.848 170.066Z" fill="#102048"/>
<path d="M110.032 158.133C90.9812 183.551 65.9055 197.853 37.9595 206.846C38.5093 205.877 38.9692 204.859 39.3335 203.805C39.928 202.232 40.1138 200.533 39.8735 198.868C39.6332 197.203 38.9747 195.626 37.9595 194.284L37.1055 185.437L88.4775 147.482L100.754 155.759L110.032 158.133Z" fill="#961530"/>
<path d="M9.99023 146.91C19.9802 166.319 20.5144 193.245 37.9614 194.29L119.248 141.873L95.3306 100.387L30.2554 126.075L9.99023 146.91Z" fill="#961530"/>
<path opacity="0.3" d="M39.333 203.806C39.9275 202.233 40.1133 200.534 39.873 198.869C39.6328 197.204 38.9742 195.627 37.959 194.285C53.323 186.523 71.6051 174.196 91.0591 160.029C75.1111 176.173 58.228 191.197 39.333 203.806Z" fill="#581523"/>
<path d="M112.172 149.479C93.9049 181.446 63.1351 195.912 23.1211 207.703L35.1631 215.669C37.0914 216.944 39.3585 217.61 41.6699 217.579C43.9813 217.548 46.2302 216.823 48.124 215.497C73.289 197.888 96.3408 180.079 113.885 161.751L112.172 149.479Z" fill="#C7193D"/>
<path d="M119.306 100.1C95.8251 89.5852 57.6059 107.484 19.7329 124.7C15.4708 126.638 11.7505 129.595 8.8999 133.309C6.04929 137.024 4.15566 141.382 3.38574 146L0 166.317C22.263 132.353 68.9082 109.489 119.306 100.1Z" fill="#C7193D"/>
<path d="M135.661 100.85C135.555 104.387 135.409 107.35 135.441 107.924L121.841 110.03L114.041 104.322C117.749 100.086 119.473 90.422 121.62 82.043L130.165 87.1429L135.711 90.4429C135.856 93.2559 135.783 97.33 135.661 100.85Z" fill="#F9B384"/>
<path d="M135.661 100.85C131.587 98.4027 126.309 94.6707 123.902 86.2227L130.164 87.1417L135.709 90.4417C135.855 93.2557 135.783 97.3297 135.661 100.85Z" fill="#E28B6D"/>
<path d="M143.751 80.3849C143.852 82.1203 143.632 83.8594 143.102 85.5149C140.427 93.6539 130.312 95.8819 122.847 85.4669L122.221 69.3829L127.498 64.8379L144.654 71.4649L143.582 78.5649C143.673 79.1678 143.729 79.7755 143.751 80.3849Z" fill="#F9B384"/>
<path d="M162.94 161.214C160.276 142.947 148.288 115.737 135.54 104.273L129.546 116.261L146.956 165.353L162.94 161.214Z" fill="#708CD5"/>
<path d="M154.373 161.216C150.333 142.547 144.859 122.97 135.536 104.275C130.826 109.698 116.982 99.1367 116.982 99.1367L109.848 105.274L128.686 169.398L154.373 161.216Z" fill="white"/>
<path d="M171.883 225.916L157.231 220.969L153.675 229.587L167.696 237.143L171.883 225.916Z" fill="#F9B384"/>
<path d="M176.259 255.597L167.697 237.14L153.676 229.584L147.338 244.942L176.259 255.597Z" fill="#D3DFFF"/>
<path d="M169.955 241.965L165.079 243.322L165.297 244.105L170.173 242.748L169.955 241.965Z" fill="#708CD5"/>
<path d="M171.718 245.625L166.84 246.98L167.058 247.764L171.936 246.408L171.718 245.625Z" fill="#708CD5"/>
<path d="M151.952 233.728L151.589 234.455L159.99 238.655L160.354 237.928L151.952 233.728Z" fill="#708CD5"/>
<path d="M129.072 150.562C149.265 152.01 170.025 155.615 188.498 163.623C198.453 167.938 201.758 181.593 197.217 191.448L178.925 231.149L152.381 222.871L169.255 187.746C118.255 189.268 112.676 170.536 112.676 170.536L129.072 150.562Z" fill="#1F3C88"/>
<path d="M138.772 162.549C132.121 174.46 122.421 181.006 110.435 185.576L109.069 173.444L106.569 151.181L102.715 116.869L105.284 104.705L116.984 99.1426C129.831 112.697 133.994 142.985 138.772 162.549Z" fill="#708CD5"/>
<path d="M123.403 78.2283C123.627 73.8283 124.847 71.4763 128.123 70.1153C134.344 75.7833 145.822 75.5783 151.567 70.3523C149.494 69.6303 147.979 69.1003 146.485 67.5403C145.47 66.4606 144.657 65.2074 144.085 63.8403C140.096 55.8873 125.205 55.3463 123.104 63.0033C113.889 67.4753 118.342 74.2553 119.846 78.3773L123.403 78.2283Z" fill="#102048"/>
<path d="M126.5 129.797L127.549 122.137L132.259 119.711C132.259 119.711 134.594 120.105 133.611 123.124C132.628 126.143 126.5 129.797 126.5 129.797Z" fill="#E28B6D"/>
<path d="M123.531 131.599L126.5 129.799L130.324 123.43L135.456 120.862C135.527 120.827 135.605 120.806 135.686 120.802C135.766 120.797 135.846 120.81 135.921 120.838C135.996 120.866 136.064 120.909 136.122 120.965C136.18 121.021 136.225 121.088 136.255 121.162C136.599 121.468 136.869 121.848 137.045 122.272C137.221 122.697 137.299 123.156 137.272 123.615C137.782 123.956 138.15 124.471 138.307 125.064C138.464 125.657 138.4 126.287 138.126 126.835C139.718 127.51 140.316 128.341 139.847 129.335C140.227 129.858 140.498 130.452 140.645 131.082C140.791 131.712 140.809 132.365 140.697 133.002L132.803 138.702L125.048 141.572L123.531 131.599Z" fill="#F9B384"/>
<path opacity="0.3" d="M126.026 143.141C122.814 156.248 117.285 166.501 109.072 173.441L106.572 151.178L126.026 143.141Z" fill="#1F3C88"/>
<path d="M116.987 99.1387L100.815 101.069C98.0409 101.403 95.4136 102.499 93.2247 104.236C91.0359 105.973 89.3712 108.282 88.4151 110.908C83.4611 124.443 80.1039 138.944 79.2999 151.393C79.1914 153.235 79.5125 155.076 80.2374 156.773C80.9623 158.47 82.0717 159.975 83.4776 161.169C84.8836 162.364 86.5476 163.216 88.339 163.657C90.1304 164.099 91.9998 164.118 93.7999 163.714C106.47 160.899 116.825 152.707 126.02 143.142L124.497 130.012L98.6192 142.38L116.987 99.1387Z" fill="#708CD5"/>
<path d="M125.794 81.1358C124.812 83.2778 123.207 84.7278 121.13 83.7758C119.053 82.8238 116.486 79.7807 117.818 76.8447C118.792 74.6987 121.748 74.5708 123.825 75.5238C124.829 76.0074 125.601 76.87 125.971 77.9222C126.34 78.9744 126.276 80.1302 125.794 81.1358Z" fill="#F9B384"/>
<path d="M106.927 122.485C106.344 124.185 105.716 125.858 105.078 127.531C104.44 129.204 103.766 130.862 103.113 132.531L101.048 137.489C100.336 139.132 99.6201 140.773 98.8481 142.389L98.5479 142.269C99.1219 140.569 99.7477 138.894 100.386 137.219L102.362 132.225C103.056 130.575 103.72 128.913 104.437 127.272C105.154 125.631 105.865 123.987 106.628 122.365L106.927 122.485Z" fill="#1F3C88"/>
<path d="M98.6816 142.134C100.791 141.034 102.908 139.952 105.041 138.902C107.174 137.852 109.317 136.823 111.454 135.781L117.912 132.758C120.077 131.774 122.243 130.794 124.435 129.869L124.571 130.156C122.471 131.275 120.345 132.339 118.217 133.399L111.799 136.509C109.644 137.509 107.499 138.542 105.335 139.521C103.176 140.515 101 141.476 98.8174 142.421L98.6816 142.134Z" fill="#1F3C88"/>
<g opacity="0.3">
<path d="M126.104 108.435C127.397 109.492 129.037 110.029 130.704 109.941C132.364 109.805 133.918 109.071 135.079 107.877L135.33 108.077C134.835 108.855 134.162 109.503 133.366 109.968C132.57 110.434 131.674 110.703 130.754 110.753C129.835 110.809 128.916 110.649 128.07 110.286C127.224 109.924 126.475 109.368 125.882 108.664L126.104 108.435Z" fill="#1F3C88"/>
<path d="M137.938 147.824C138.955 146.811 139.861 145.692 140.638 144.485C142.179 142.073 143.177 139.356 143.563 136.521C143.759 135.098 143.801 133.659 143.69 132.228L144.004 132.182C144.315 133.632 144.405 135.122 144.27 136.6C144.001 139.579 142.944 142.434 141.207 144.87C140.35 146.08 139.318 147.157 138.145 148.064L137.938 147.824Z" fill="#1F3C88"/>
<path d="M139.896 148.217C141.046 147.43 142.148 146.576 143.196 145.659C144.235 144.743 145.191 143.749 146.16 142.717L146.42 142.9C145.747 144.183 144.834 145.326 143.73 146.267C142.645 147.226 141.396 147.982 140.042 148.499L139.896 148.217Z" fill="#1F3C88"/>
</g>
<path d="M122.906 79.8329C122.788 79.4614 122.616 79.1096 122.394 78.7889C122.183 78.4775 121.917 78.2065 121.61 77.9889C120.978 77.552 120.226 77.3221 119.457 77.3309L119.413 77.0969C119.833 76.9448 120.284 76.9048 120.724 76.9809C121.173 77.0535 121.597 77.2309 121.964 77.4986C122.331 77.7664 122.63 78.117 122.836 78.5219C123.045 78.9143 123.15 79.3535 123.142 79.7979L122.906 79.8329Z" fill="#E28B6D"/>
<path d="M132.108 74.6147C130.727 74.2347 130.37 76.6357 130.582 77.5147C130.782 78.3367 131.448 78.5737 132.02 77.9147C132.545 77.3147 133.318 74.9527 132.108 74.6147Z" fill="#102048"/>
<path d="M140.981 76.1488C140.961 75.9823 140.892 75.8255 140.783 75.6982C140.674 75.5709 140.529 75.4789 140.368 75.4337C140.206 75.3885 140.035 75.3922 139.876 75.4444C139.716 75.4966 139.576 75.5949 139.472 75.7268C139.275 76.0115 139.153 76.3414 139.118 76.6858C138.974 77.2475 138.959 77.8348 139.076 78.4029C139.301 79.0779 139.918 79.3818 140.376 78.7428C140.886 77.9804 141.101 77.0583 140.981 76.1488Z" fill="#102048"/>
<path d="M136.181 77.2717C136.168 77.9067 136.133 78.5437 136.15 79.1557C136.149 79.4327 136.189 79.7084 136.269 79.9737C136.382 80.2217 136.537 80.4478 136.728 80.6417C136.961 80.8859 137.173 81.1492 137.362 81.4287C137.464 81.5926 137.545 81.7695 137.6 81.9547C137.675 82.1911 137.657 82.447 137.55 82.6707C137.436 82.8687 137.261 83.0234 137.05 83.1107C136.893 83.1808 136.732 83.241 136.567 83.2907C136.275 83.3574 135.993 83.4623 135.728 83.6027L135.528 83.3807C135.769 83.1352 136.054 82.9366 136.368 82.7947C136.646 82.6667 136.943 82.4947 136.948 82.3827C136.944 82.1805 136.869 81.9861 136.736 81.8337C136.557 81.5922 136.363 81.3618 136.156 81.1437C135.892 80.8887 135.696 80.5731 135.582 80.2245C135.469 79.8759 135.442 79.5049 135.505 79.1437C135.56 78.491 135.689 77.8467 135.888 77.2227L136.181 77.2717Z" fill="#102048"/>
<path d="M131.527 83.0918L137.168 85.8358C136.203 87.7158 131.883 87.5158 131.527 83.0918Z" fill="white"/>
<path opacity="0.4" d="M143.1 85.5156C142.943 85.5486 142.782 85.5651 142.62 85.5646C142.216 85.5641 141.816 85.4729 141.451 85.2977C141.085 85.1225 140.764 84.8678 140.511 84.5522C140.257 84.2367 140.077 83.8683 139.984 83.4742C139.891 83.08 139.888 82.6701 139.974 82.2745C140.061 81.8789 140.234 81.5076 140.483 81.1879C140.731 80.8683 141.048 80.6083 141.411 80.4271C141.773 80.246 142.171 80.1482 142.576 80.1411C142.98 80.1339 143.382 80.2174 143.75 80.3856C143.851 82.121 143.631 83.8602 143.1 85.5156Z" fill="#FC8879"/>
<path opacity="0.4" d="M127.92 83.8712C129.417 83.8712 130.63 82.6579 130.63 81.1612C130.63 79.6645 129.417 78.4512 127.92 78.4512C126.423 78.4512 125.21 79.6645 125.21 81.1612C125.21 82.6579 126.423 83.8712 127.92 83.8712Z" fill="#FC8879"/>
<path d="M199.071 7.823C196.724 5.52138 194.638 2.96722 192.853 0.207031C194.023 0.14212 195.146 -0.279056 196.07 -1C197.448 1.92813 199.316 4.59979 201.592 6.90002C200.608 6.57702 199.984 7.515 199.071 7.823Z" fill="#C6EAE9"/>
<path d="M86.438 79.0436C84.3242 76.9707 82.446 74.6704 80.8379 72.1846C81.8929 72.1271 82.9049 71.7478 83.7378 71.0977C84.9784 73.7348 86.6601 76.141 88.71 78.2126C87.826 77.9216 87.264 78.7656 86.438 79.0436Z" fill="#FBD682"/>
<path d="M118.196 55.0565C119.238 52.9586 120.501 50.978 121.963 49.1484C122.136 50.0267 122.534 50.8455 123.116 51.5255C121.472 53.0805 120.108 54.9072 119.085 56.9254C119.15 56.1074 118.503 55.7385 118.196 55.0565Z" fill="#FBD682"/>
<path d="M198.385 115.255C199.541 112.926 200.944 110.727 202.568 108.695C202.762 109.67 203.202 110.579 203.847 111.335C202.023 113.061 200.509 115.087 199.372 117.326C199.445 116.422 198.726 116.015 198.385 115.255Z" fill="#EE6F57"/>
<path d="M236.5 8.50531C237.657 6.17584 239.059 3.97668 240.683 1.94531C240.876 2.92047 241.317 3.82957 241.963 4.58533C240.138 6.31067 238.624 8.33769 237.488 10.5773C237.56 9.67233 236.842 9.26331 236.5 8.50531Z" fill="#708CD5"/>
<path d="M53.2324 70.3142C52.1902 68.2166 50.9273 66.2361 49.4653 64.4062C49.2911 65.2846 48.8943 66.1035 48.3125 66.7842C49.9566 68.3389 51.3197 70.1657 52.3423 72.1842C52.2773 71.3682 52.9244 71.0002 53.2324 70.3142Z" fill="#708CD5"/>
<path d="M149.68 40.2709C148.523 37.9416 147.121 35.7425 145.497 33.7109C145.303 34.6859 144.862 35.5949 144.217 36.351C146.041 38.0762 147.555 40.1028 148.692 42.3419C148.62 41.4369 149.338 41.0289 149.68 40.2709Z" fill="#D3DFFF"/>
<path d="M225.035 39.4146C221.926 40.0174 218.772 40.3563 215.606 40.4276C216.231 39.7277 216.591 38.8311 216.624 37.8936C219.705 38.1507 222.807 37.9973 225.849 37.4375C225.021 37.9435 225.351 38.7146 225.035 39.4146Z" fill="#F5C7BE"/>
<path d="M79.9263 21.4534C82.6851 22.2798 85.5384 22.7503 88.4165 22.8535C87.8296 21.7814 87.515 20.5816 87.5005 19.3594C84.7174 19.7129 81.8915 19.499 79.1934 18.7305C79.9384 19.4205 79.6413 20.4764 79.9263 21.4534Z" fill="#C6EAE9"/>
<path d="M154.293 11.2361C151.174 12.8452 147.865 14.0586 144.444 14.8481C144.953 13.4532 145.116 11.9559 144.92 10.4841C148.32 10.2573 151.64 9.35436 154.687 7.82812C153.922 8.82213 154.46 10.0091 154.293 11.2361Z" fill="#EE6F57"/>
<path d="M204.617 78.2578C206.864 79.9692 208.908 81.9312 210.71 84.1058C209.695 84.3081 208.764 84.8079 208.034 85.5418C206.572 83.1746 204.705 81.0833 202.518 79.3638C203.397 79.5248 203.851 78.6378 204.617 78.2578Z" fill="#C6EAE9"/>
<path d="M173.129 80.1797C175.377 81.8904 177.422 83.8525 179.224 86.0277C178.208 86.2292 177.276 86.7292 176.546 87.4637C175.086 85.0959 173.218 83.0045 171.03 81.2857C171.909 81.4467 172.363 80.5587 173.129 80.1797Z" fill="#FBD682"/>
<path d="M92.9365 42.541C95.4661 44.4673 97.7675 46.6759 99.7964 49.124C98.6533 49.3512 97.6042 49.9142 96.7827 50.741C95.1378 48.0759 93.0355 45.7215 90.5732 43.786C91.5622 43.967 92.0715 42.968 92.9365 42.541Z" fill="#F5C7BE"/>
<path d="M226.387 66.3917C228.237 64.4066 229.812 62.182 231.07 59.7776C229.974 59.565 228.957 59.0562 228.13 58.3066C227.263 60.8729 225.888 63.238 224.086 65.2606C224.912 65.0526 225.553 66.0057 226.387 66.3917Z" fill="#F5C7BE"/>
<path d="M278.422 62.0643C279.464 59.9664 280.726 57.9858 282.189 56.1562C282.363 57.0341 282.76 57.8526 283.341 58.5333C281.697 60.0885 280.334 61.9152 279.311 63.9333C279.371 63.1153 278.729 62.7463 278.422 62.0643Z" fill="#EE6F57"/>
<path d="M259.627 30.1701C258.694 33.2375 257.448 36.201 255.91 39.0141C255.499 37.9109 254.8 36.938 253.885 36.1971C255.719 33.6975 257.129 30.9129 258.057 27.9551C258.144 29.0481 259.076 29.3541 259.627 30.1701Z" fill="#D3DFFF"/>
<path d="M240.359 84.6356C241.042 86.8822 241.955 89.0526 243.082 91.1127C243.383 90.3049 243.895 89.5925 244.564 89.0496C243.221 87.2193 242.189 85.1799 241.509 83.0137C241.445 83.8147 240.762 84.0386 240.359 84.6356Z" fill="#D3DFFF"/>
<path d="M297.637 25.9922C295.107 27.9182 292.805 30.1269 290.776 32.5752C291.919 32.8024 292.968 33.3654 293.79 34.1922C295.435 31.527 297.537 29.1726 300 27.2372C299.011 27.4152 298.5 26.4152 297.637 25.9922Z" fill="#FBD682"/>
</svg>
